<svg width="50" height="17" viewBox="0 0 50 17" fill="none" xmlns="http://www.w3.org/2000/svg">
<g filter="url(#filter0_d)">
<path d="M6.08057 0.179688L8.33643 6.17383L10.5869 0.179688H12.3433V8H10.9897V5.42188L11.124 1.97363L8.81445 8H7.84229L5.53809 1.979L5.67236 5.42188V8H4.31885V0.179688H6.08057ZM19.6787 6.1792H16.6494L16.0156 8H14.603L17.5571 0.179688H18.7764L21.7358 8H20.3179L19.6787 6.1792ZM17.0308 5.0835H19.2974L18.1641 1.83936L17.0308 5.0835ZM28.8833 1.27539H26.4448V8H25.0967V1.27539H22.6797V0.179688H28.8833V1.27539ZM36.9814 5.4541C36.9027 6.28841 36.5947 6.9401 36.0576 7.40918C35.5205 7.87467 34.8062 8.10742 33.9146 8.10742C33.2915 8.10742 32.7419 7.96061 32.2656 7.66699C31.793 7.36979 31.4277 6.94906 31.1699 6.40479C30.9121 5.86051 30.7778 5.22852 30.7671 4.50879V3.77832C30.7671 3.04069 30.8978 2.39079 31.1592 1.82861C31.4206 1.26644 31.7948 0.833171 32.2817 0.528809C32.7723 0.224447 33.3381 0.0722656 33.979 0.0722656C34.842 0.0722656 35.5366 0.306803 36.063 0.775879C36.5894 1.24495 36.8955 1.90739 36.9814 2.76318H35.6279C35.5635 2.20101 35.3988 1.79639 35.1338 1.54932C34.8724 1.29867 34.4875 1.17334 33.979 1.17334C33.3882 1.17334 32.9334 1.38997 32.6147 1.82324C32.2996 2.25293 32.1385 2.88493 32.1313 3.71924V4.41211C32.1313 5.25716 32.2817 5.90169 32.5825 6.3457C32.8869 6.78971 33.3309 7.01172 33.9146 7.01172C34.4481 7.01172 34.8491 6.89176 35.1177 6.65186C35.3862 6.41195 35.5563 6.0127 35.6279 5.4541H36.9814ZM45.6597 8H44.3062V4.5249H40.8096V8H39.4507V0.179688H40.8096V3.43457H44.3062V0.179688H45.6597V8Z" fill="white"/>
</g>
<defs>
<filter id="filter0_d" x="0.318848" y="0.0722656" width="49.3408" height="16.0352" filterUnits="userSpaceOnUse" color-interpolation-filters="sRGB">
<feFlood flood-opacity="0" result="BackgroundImageFix"/>
<feColorMatrix in="SourceAlpha" type="matrix" values="0 0 0 0 0 0 0 0 0 0 0 0 0 0 0 0 0 0 127 0"/>
<feOffset dy="4"/>
<feGaussianBlur stdDeviation="2"/>
<feColorMatrix type="matrix" values="0 0 0 0 0 0 0 0 0 0 0 0 0 0 0 0 0 0 0.25 0"/>
<feBlend mode="normal" in2="BackgroundImageFix" result="effect1_dropShadow"/>
<feBlend mode="normal" in="SourceGraphic" in2="effect1_dropShadow" result="shape"/>
</filter>
</defs>
</svg>
